<?xml version="1.0" standalone="no"?><!DOCTYPE svg PUBLIC "-//W3C//DTD SVG 1.1//EN" "http://www.w3.org/Graphics/SVG/1.1/DTD/svg11.dtd"><svg t="1680965235507" class="icon" viewBox="0 0 1024 1024" version="1.1" xmlns="http://www.w3.org/2000/svg" p-id="5836" data-darkreader-inline-fill="" width="64" height="64" xmlns:xlink="http://www.w3.org/1999/xlink"><path d="M982.664281 322.316259c-26.65034-26.249367-61.814168-40.354331-99.257564-39.831514-75.157061 1.154183-136.299986 64.082659-136.299986 140.272061v323.259986c0 14.867035-12.084589 26.960485-26.938332 26.960486h-41.160708v-115.839259c0-104.044878-52.427843-198.77432-138.227317-252.498128a103.389142 103.389142 0 0 0 6.415576-9.813883c13.347323-23.420399 16.778859-50.637862 9.656595-76.641327-7.120049-26.003466-23.941-47.675974-47.368045-61.027728-15.850639-9.025227-33.342832-13.517903-51.227137-13.240988a203.138507 203.138507 0 0 0-19.335343-28.49792c-39.093812-48.229805-97.099839-75.892548-159.13997-75.892548S159.738107 167.18824 120.648726 215.411399a203.18946 203.18946 0 0 0-19.333127 28.491274c-36.127494-0.166149-69.769394 18.954307-88.008151 50.948007-13.360615 23.409322-16.801012 50.626785-9.680964 76.630251 7.117834 26.00125 23.936569 47.675974 47.341461 61.014436 15.383206 8.788188 32.357013 13.296371 49.742871 13.296371 0.436419 0 0.875053-0.039876 1.311471-0.044306 17.525423 30.713243 42.924106 56.942672 74.293085 75.338717a203.570496 203.570496 0 0 0 41.905057 18.555548v223.01882c-44.847006 10.556016-75.896979 51.874012-75.896979 104.089184v17.722587h577.842734c76.333398 0 138.435558-62.111021 138.435558-138.457711v-325.098705c0-14.616704 11.876349-26.701293 26.481975-26.940548 6.960546-0.046522 13.692914 2.631804 18.887847 7.74034 5.431973 5.34336 8.548933 12.711526 8.548933 20.219257v60.76632c0 14.891404 5.799717 28.894463 16.313641 39.408387 10.511709 10.544939 24.512553 16.351302 39.423895 16.351302 30.733181 0 55.737536-25.013216 55.737536-55.759689v-61.785369c0.004431-37.325984-14.676517-72.341385-41.331288-98.599613z m-490.722926-34.361881c15.192688 8.659699 26.105371 22.720357 30.724319 39.590044 4.621165 16.871903 2.394765 34.532461-6.260503 49.718503-9.353095 16.391178-24.785038 27.516532-42.33483 31.470884a203.632525 203.632525 0 0 0 10.500633-64.417174c0-21.566173-3.478058-42.895306-10.064214-63.189883a65.633386 65.633386 0 0 1 17.434595 6.827626z m-111.401967-79.798163c-39.403957 5.006631-75.072879 24.279944-100.759553 54.426065-25.682244-30.143905-61.351166-49.417219-100.757338-54.426065 28.836864-21.400024 63.938663-33.185544 100.759553-33.185544 36.818674 0 71.920473 11.78552 100.757338 33.185544z m-312.006144 193.555018c-15.192688-8.659699-26.105371-22.718141-30.722105-39.587828-4.616734-16.865257-2.385903-34.516953 6.284873-49.707426 9.047381-15.870577 23.925492-26.856365 40.901515-31.109786-6.548496 20.243625-10.006616 41.510729-10.006615 63.014873a203.594864 203.594864 0 0 0 10.400943 64.102597 65.63117 65.63117 0 0 1-16.858611-6.71243z m41.902842-57.392382c0-31.568358 8.912246-62.554086 25.392036-89.184489 4.849343-7.837814 13.294156-12.866598 22.512116-12.877674h0.146212c43.699469 0 83.384772 22.317168 106.160511 59.698534l15.135089 24.83599 15.13509-24.83599c22.777955-37.381367 62.463258-59.698534 106.160511-59.698534h0.146211c9.217961 0.011077 17.662773 5.042076 22.514332 12.87989a169.82669 169.82669 0 0 1 25.392036 89.182273c0 59.860253-32.113328 115.87692-83.807898 146.191405-25.828455 15.146166-55.409668 23.152345-85.538066 23.152344s-59.707396-8.006179-85.535851-23.150129c-51.699002-30.318916-83.812329-86.335583-83.812329-146.19362z m169.345964 204.788923c3.856878 0 7.704895-0.132919 11.54405-0.347806v214.622744c-14.025212 3.923338-26.814274 11.229474-37.660497 21.016773v-236.973141c8.633115 1.105446 17.354843 1.68143 26.116447 1.68143zM179.483284 849.029329c6.114293-30.48285 28.072578-51.628111 57.536379-53.420308l6.273796-0.383251c-12.288399 14.840451-20.837332 33.411507-24.009675 53.803559H179.483284z m131.096192-53.278527l16.191798-1.404515V543.658079A203.878425 203.878425 0 0 0 383.250944 521.083933c31.364548-18.39383 56.761016-44.616613 74.286439-75.325425 0.755425 0.017723 1.513066 0.039876 2.266275 0.039876 19.516999 0 38.22762-5.655721 54.195671-15.921529 75.239028 43.422553 123.34256 121.876015 128.991634 209.8022a138.874192 138.874192 0 0 0-38.220974-29.488169c-20.609153-10.799701-42.78454-16.278196-65.912516-16.278197-64.556738 0-119.208766 43.234251-136.762989 102.339079v-137.434231h-35.445174v290.207362h-111.240248c6.670339-28.49792 28.878956-50.992313 55.170414-53.274097z m91.512793 53.278527v-70.591279c6.805473 23.562179 19.222361 45.199243 35.976852 61.96481a165.630867 165.630867 0 0 0 9.361956 8.626469h-45.338808z m241.470248 0h-104.277487c-27.381397 0-54.423849-11.962746-76.14731-33.686207-17.857722-17.866583-29.554629-44.465971-31.295873-71.21157a103.849929 103.849929 0 0 1-0.239255-7.086819c0-59.377312 48.114608-107.682439 107.254881-107.682439 17.337121 0 33.97863 4.113856 49.468171 12.233016 24.191331 12.656142 42.452242 34.430556 51.422086 61.324581 3.178989 9.505953 3.817002 20.10406 3.817002 34.124842v111.984596z m344.992309-366.328088c0 11.20289-9.102764 20.314515-20.292362 20.314515a20.092983 20.092983 0 0 1-14.339788-5.952574 20.177165 20.177165 0 0 1-5.95479-14.361941v-60.76632c0-16.947224-6.976053-33.528919-19.144824-45.491666-12.026991-11.825396-27.839969-18.205527-44.328621-17.908674-33.823557 0.553831-61.337874 28.540011-61.337873 62.381291v325.098705c0 56.803107-46.200569 103.012537-102.990384 103.012537h-41.160708v-40.606878h41.160708c34.397326 0 62.383506-27.995041 62.383506-62.405659v-323.259987c0-56.944887 45.487235-103.971772 101.397566-104.831317 0.533893-0.008861 1.065571-0.013292 1.599464-0.013292 27.188664 0 52.791156 10.496202 72.24391 29.658749 19.838221 19.539152 30.764196 45.58914 30.764196 73.347142v61.785369z" p-id="5837" fill="#87c38f" data-darkreader-inline-fill="" style="--darkreader-inline-fill:#356a48;"></path><path d="M194.341458 305.544046c-37.616191 0-68.223099 30.604692-68.223098 68.223098s30.604692 68.223099 68.223098 68.223099 68.223099-30.604692 68.223099-68.223099-30.604692-68.223099-68.223099-68.223098z m0 100.998808c-18.072608 0-32.777925-14.705317-32.777924-32.777925s14.705317-32.777925 32.777924-32.777925 32.777925 14.705317 32.777925 32.777925-14.705317 32.777925-32.777925 32.777925zM365.222642 441.988028c37.616191 0 68.223099-30.604692 68.223099-68.223099s-30.604692-68.223099-68.223099-68.223099-68.223099 30.604692-68.223098 68.223099 30.606908 68.223099 68.223098 68.223099z m0-100.998808c18.072608 0 32.777925 14.705317 32.777925 32.777924s-14.705317 32.777925-32.777925 32.777925-32.777925-14.705317-32.777924-32.777925 14.705317-32.777925 32.777924-32.777924z" p-id="5838" fill="#87c38f" data-darkreader-inline-fill="" style="--darkreader-inline-fill:#356a48;"></path></svg>